<svg width="100" height="42" viewBox="0 0 100 42" fill="none" xmlns="http://www.w3.org/2000/svg">
<path d="M17.184 32.848C14.736 32.848 12.544 32.496 10.608 31.792C8.672 31.104 7.024 30.088 5.664 28.744C4.304 27.384 3.272 25.696 2.568 23.68C1.864 21.664 1.512 19.328 1.512 16.672C1.512 14.384 1.832 12.384 2.472 10.672C3.128 8.96 4.024 7.496 5.16 6.28C6.296 5.064 7.6 4.08 9.072 3.328C10.56 2.576 12.136 2.024 13.8 1.672C15.464 1.32 17.144 1.144 18.84 1.144C20.04 1.144 21.216 1.256 22.368 1.48C23.52 1.688 24.552 1.984 25.464 2.368C26.392 2.752 27.128 3.192 27.672 3.688C28.232 4.168 28.512 4.688 28.512 5.248C28.512 5.856 28.304 6.336 27.888 6.688C27.472 7.024 26.952 7.192 26.328 7.192C25.944 7.192 25.528 7.112 25.08 6.952C24.648 6.792 24.128 6.608 23.52 6.4C22.928 6.192 22.2 6.008 21.336 5.848C20.488 5.672 19.448 5.584 18.216 5.584C16.744 5.584 15.384 5.84 14.136 6.352C12.904 6.864 11.824 7.6 10.896 8.56C9.984 9.52 9.272 10.696 8.76 12.088C8.264 13.464 8.016 15.032 8.016 16.792C8.016 19.384 8.416 21.512 9.216 23.176C10.032 24.824 11.208 26.04 12.744 26.824C14.296 27.592 16.16 27.976 18.336 27.976C19.472 27.976 20.528 27.872 21.504 27.664C22.496 27.44 23.36 27.104 24.096 26.656C24.832 26.192 25.408 25.616 25.824 24.928C26.24 24.224 26.448 23.392 26.448 22.432C26.448 21.648 26.224 20.96 25.776 20.368C25.328 19.76 24.656 19.28 23.76 18.928C22.88 18.56 21.784 18.352 20.472 18.304C19.128 18.208 18.072 18.016 17.304 17.728C16.552 17.44 16.176 16.912 16.176 16.144C16.176 15.536 16.408 15.064 16.872 14.728C17.352 14.392 18.032 14.16 18.912 14.032C19.792 13.888 20.848 13.816 22.08 13.816C23.712 13.816 25.184 13.976 26.496 14.296C27.824 14.6 28.952 15.08 29.88 15.736C30.808 16.376 31.52 17.2 32.016 18.208C32.512 19.216 32.76 20.408 32.76 21.784C32.76 23.832 32.368 25.568 31.584 26.992C30.816 28.416 29.728 29.56 28.32 30.424C26.928 31.272 25.288 31.888 23.4 32.272C21.512 32.656 19.44 32.848 17.184 32.848ZM48.5389 32.56C46.2349 32.56 44.2669 32.2 42.6349 31.48C41.0029 30.776 39.6749 29.752 38.6509 28.408C37.6269 27.064 36.8749 25.448 36.3949 23.56C35.9149 21.656 35.6749 19.52 35.6749 17.152C35.6749 16.576 35.6909 16 35.7229 15.424C35.7709 14.832 35.8349 14.264 35.9149 13.72C35.9949 13.176 36.0989 12.688 36.2269 12.256C36.5149 11.152 36.9309 10.36 37.4749 9.88C38.0189 9.384 38.6749 9.136 39.4429 9.136C40.1629 9.136 40.7069 9.288 41.0749 9.592C41.4429 9.896 41.6829 10.28 41.7949 10.744C41.9229 11.192 41.9949 11.64 42.0109 12.088C42.0109 12.408 42.0109 12.776 42.0109 13.192C42.0109 13.608 42.0109 14.04 42.0109 14.488C42.0109 14.936 42.0109 15.376 42.0109 15.808C42.0269 16.224 42.0429 16.608 42.0589 16.96C42.1389 19.008 42.3869 20.816 42.8029 22.384C43.2189 23.936 43.8989 25.152 44.8429 26.032C45.8029 26.896 47.1069 27.328 48.7549 27.328C50.4349 27.328 51.7869 26.984 52.8109 26.296C53.8349 25.592 54.6189 24.584 55.1629 23.272C55.7229 21.944 56.1389 20.352 56.4109 18.496C56.4909 18.016 56.5549 17.528 56.6029 17.032C56.6669 16.52 56.7149 16.008 56.7469 15.496C56.7949 14.984 56.8429 14.472 56.8909 13.96C56.9549 13.432 57.0189 12.904 57.0829 12.376C57.2589 11.336 57.5709 10.528 58.0189 9.952C58.4669 9.376 59.1309 9.088 60.0109 9.088C60.7789 9.088 61.3469 9.344 61.7149 9.856C62.0989 10.352 62.3629 11.056 62.5069 11.968C62.5549 12.56 62.5869 13.152 62.6029 13.744C62.6189 14.32 62.6189 14.904 62.6029 15.496C62.6029 16.088 62.5869 16.672 62.5549 17.248C62.5389 17.824 62.5069 18.4 62.4589 18.976C62.2509 21.92 61.6109 24.408 60.5389 26.44C59.4669 28.456 57.9309 29.976 55.9309 31C53.9469 32.04 51.4829 32.56 48.5389 32.56ZM76.3883 31.816C75.3963 31.816 74.3643 31.768 73.2923 31.672C72.2203 31.592 71.2123 31.464 70.2683 31.288C69.3243 31.112 68.5243 30.896 67.8683 30.64C67.2763 30.4 66.7883 30.128 66.4043 29.824C66.0363 29.52 65.8523 29.088 65.8523 28.528C65.8523 27.904 66.0363 27.432 66.4043 27.112C66.7723 26.776 67.3083 26.608 68.0123 26.608C68.5083 26.608 69.1243 26.696 69.8603 26.872C70.6123 27.032 71.4603 27.208 72.4043 27.4C73.3483 27.576 74.3483 27.664 75.4043 27.664C76.4443 27.664 77.4363 27.576 78.3802 27.4C79.3243 27.208 80.0923 26.896 80.6843 26.464C81.2763 26.032 81.5723 25.44 81.5723 24.688C81.5723 24 81.3803 23.44 80.9963 23.008C80.6283 22.576 79.9803 22.2 79.0523 21.88C78.1243 21.56 76.8203 21.232 75.1403 20.896C73.3003 20.528 71.7403 20.048 70.4603 19.456C69.1963 18.864 68.2283 18.136 67.5563 17.272C66.9003 16.392 66.5723 15.344 66.5723 14.128C66.5723 13.072 66.8683 12.16 67.4603 11.392C68.0683 10.608 68.8923 9.968 69.9323 9.472C70.9723 8.96 72.1562 8.584 73.4843 8.344C74.8283 8.088 76.2363 7.96 77.7083 7.96C78.6043 7.96 79.5163 8.016 80.4443 8.128C81.3883 8.224 82.2603 8.376 83.0603 8.584C83.8763 8.776 84.5323 9.032 85.0283 9.352C85.5243 9.656 85.7723 10.024 85.7723 10.456C85.7723 10.92 85.6603 11.296 85.4363 11.584C85.2123 11.872 84.9163 12.08 84.5483 12.208C84.1963 12.336 83.8043 12.4 83.3723 12.4C82.6843 12.4 81.8923 12.32 80.9963 12.16C80.1163 12 79.1563 11.92 78.1163 11.92C77.2043 11.92 76.3563 12.016 75.5723 12.208C74.7883 12.384 74.1563 12.672 73.6763 13.072C73.2123 13.456 72.9803 13.968 72.9803 14.608C72.9803 15.552 73.4923 16.28 74.5163 16.792C75.5563 17.304 77.0763 17.768 79.0763 18.184C80.9323 18.552 82.4683 19.024 83.6843 19.6C84.9163 20.16 85.8443 20.88 86.4683 21.76C87.0923 22.624 87.4043 23.704 87.4043 25C87.4043 26.232 87.1083 27.28 86.5163 28.144C85.9243 29.008 85.1163 29.712 84.0923 30.256C83.0683 30.784 81.8923 31.176 80.5643 31.432C79.2363 31.688 77.8443 31.816 76.3883 31.816ZM94.0418 31.648C93.1138 31.648 92.3378 31.488 91.7138 31.168C91.0898 30.848 90.6098 30.44 90.2738 29.944C89.9378 29.432 89.7698 28.896 89.7698 28.336C89.7698 27.568 90.0258 26.928 90.5378 26.416C91.0498 25.904 91.6818 25.512 92.4338 25.24C93.1858 24.968 93.9218 24.832 94.6418 24.832C95.3138 24.832 95.9058 24.96 96.4178 25.216C96.9298 25.456 97.3378 25.816 97.6418 26.296C97.9458 26.76 98.0978 27.32 98.0978 27.976C98.0978 28.68 97.9138 29.312 97.5458 29.872C97.1938 30.432 96.7138 30.864 96.1058 31.168C95.4978 31.488 94.8098 31.648 94.0418 31.648Z" fill="#DCE6EC"/>
</svg>
